<mxfile modified="2021-11-09T00:49:47.579Z" host="app.diagrams.net" agent="5.0 (Windows NT 10.0; Win64; x64) AppleWebKit/537.36 (KHTML, like Gecko) Chrome/95.0.4638.69 Safari/537.36" etag="ef_4-JF7dVtGqmfU5t5t" version="15.7.0" type="github">
  <diagram id="Ht1M8jgEwFfnCIfOTk4-" name="Page-1">
    <mxGraphModel dx="1218" dy="722" grid="1" gridSize="10" guides="1" tooltips="1" connect="1" arrows="1" fold="1" page="1" pageScale="1" pageWidth="1169" pageHeight="827" math="0" shadow="0">
      <root>
        <mxCell id="0" />
        <mxCell id="1" parent="0" />
        <mxCell id="UEzPUAAOIrF-is8g5C7q-74" value="AWS Cloud" style="points=[[0,0],[0.25,0],[0.5,0],[0.75,0],[1,0],[1,0.25],[1,0.5],[1,0.75],[1,1],[0.75,1],[0.5,1],[0.25,1],[0,1],[0,0.75],[0,0.5],[0,0.25]];outlineConnect=0;gradientColor=none;html=1;whiteSpace=wrap;fontSize=12;fontStyle=0;shape=mxgraph.aws4.group;grIcon=mxgraph.aws4.group_aws_cloud_alt;strokeColor=#232F3E;fillColor=none;verticalAlign=top;align=left;spacingLeft=30;fontColor=#232F3E;dashed=0;labelBackgroundColor=#ffffff;" parent="1" vertex="1">
          <mxGeometry x="410" y="140" width="560" height="460" as="geometry" />
        </mxCell>
        <mxCell id="wQNP4evLpSID69ooAZ5o-2" value="VPC" style="points=[[0,0],[0.25,0],[0.5,0],[0.75,0],[1,0],[1,0.25],[1,0.5],[1,0.75],[1,1],[0.75,1],[0.5,1],[0.25,1],[0,1],[0,0.75],[0,0.5],[0,0.25]];outlineConnect=0;gradientColor=none;html=1;whiteSpace=wrap;fontSize=12;fontStyle=0;shape=mxgraph.aws4.group;grIcon=mxgraph.aws4.group_vpc;strokeColor=#248814;fillColor=none;verticalAlign=top;align=left;spacingLeft=30;fontColor=#AAB7B8;dashed=0;" vertex="1" parent="1">
          <mxGeometry x="500" y="190" width="420" height="370" as="geometry" />
        </mxCell>
        <object label="分析サーバ" 分析サーバ="" id="wQNP4evLpSID69ooAZ5o-3">
          <mxCell style="sketch=0;points=[[0,0,0],[0.25,0,0],[0.5,0,0],[0.75,0,0],[1,0,0],[0,1,0],[0.25,1,0],[0.5,1,0],[0.75,1,0],[1,1,0],[0,0.25,0],[0,0.5,0],[0,0.75,0],[1,0.25,0],[1,0.5,0],[1,0.75,0]];outlineConnect=0;fontColor=#232F3E;gradientColor=#F78E04;gradientDirection=north;fillColor=#D05C17;strokeColor=#ffffff;dashed=0;verticalLabelPosition=bottom;verticalAlign=top;align=center;html=1;fontSize=12;fontStyle=0;aspect=fixed;shape=mxgraph.aws4.resourceIcon;resIcon=mxgraph.aws4.ec2;direction=east;labelBorderColor=none;" vertex="1" parent="1">
            <mxGeometry x="650" y="400" width="78" height="78" as="geometry" />
          </mxCell>
        </object>
        <object label="本体サーバ" 分析サーバ="" id="wQNP4evLpSID69ooAZ5o-4">
          <mxCell style="sketch=0;points=[[0,0,0],[0.25,0,0],[0.5,0,0],[0.75,0,0],[1,0,0],[0,1,0],[0.25,1,0],[0.5,1,0],[0.75,1,0],[1,1,0],[0,0.25,0],[0,0.5,0],[0,0.75,0],[1,0.25,0],[1,0.5,0],[1,0.75,0]];outlineConnect=0;fontColor=#232F3E;gradientColor=#F78E04;gradientDirection=north;fillColor=#D05C17;strokeColor=#ffffff;dashed=0;verticalLabelPosition=bottom;verticalAlign=top;align=center;html=1;fontSize=12;fontStyle=0;aspect=fixed;shape=mxgraph.aws4.resourceIcon;resIcon=mxgraph.aws4.ec2;direction=east;" vertex="1" parent="1">
            <mxGeometry x="650" y="230" width="78" height="78" as="geometry" />
          </mxCell>
        </object>
        <mxCell id="wQNP4evLpSID69ooAZ5o-9" value="" style="edgeStyle=orthogonalEdgeStyle;rounded=0;orthogonalLoop=1;jettySize=auto;html=1;" edge="1" parent="1" source="wQNP4evLpSID69ooAZ5o-7" target="wQNP4evLpSID69ooAZ5o-8">
          <mxGeometry relative="1" as="geometry" />
        </mxCell>
        <mxCell id="wQNP4evLpSID69ooAZ5o-7" value="KeySQL" style="image;html=1;image=img/lib/clip_art/computers/Laptop_128x128.png;labelBorderColor=none;" vertex="1" parent="1">
          <mxGeometry x="180" y="399" width="80" height="80" as="geometry" />
        </mxCell>
        <mxCell id="wQNP4evLpSID69ooAZ5o-8" value="" style="shape=waypoint;size=6;pointerEvents=1;points=[];fillColor=rgba(255, 255, 255, 1);resizable=0;rotatable=0;perimeter=centerPerimeter;snapToPoint=1;verticalAlign=top;labelBackgroundColor=rgba(255, 255, 255, 1);" vertex="1" parent="1">
          <mxGeometry x="630" y="419" width="40" height="40" as="geometry" />
        </mxCell>
        <mxCell id="wQNP4evLpSID69ooAZ5o-10" value="ebs" style="outlineConnect=0;dashed=0;verticalLabelPosition=bottom;verticalAlign=top;align=center;html=1;shape=mxgraph.aws3.volume;fillColor=#E05243;gradientColor=none;labelBorderColor=none;" vertex="1" parent="1">
          <mxGeometry x="730" y="414" width="52.5" height="75" as="geometry" />
        </mxCell>
      </root>
    </mxGraphModel>
  </diagram>
</mxfile>
